<svg width="43" height="44" viewBox="0 0 43 44" fill="none" xmlns="http://www.w3.org/2000/svg">
<path d="M20.0416 30.7498H22.9583V27.8332H20.0416V30.7498ZM21.5 7.4165C19.5848 7.4165 17.6885 7.79371 15.9192 8.52659C14.1498 9.25948 12.5422 10.3337 11.188 11.6879C8.45308 14.4228 6.91663 18.1321 6.91663 21.9998C6.91663 25.8676 8.45308 29.5769 11.188 32.3118C12.5422 33.666 14.1498 34.7402 15.9192 35.4731C17.6885 36.206 19.5848 36.5832 21.5 36.5832C25.3677 36.5832 29.077 35.0467 31.8119 32.3118C34.5468 29.5769 36.0833 25.8676 36.0833 21.9998C36.0833 20.0847 35.7061 18.1884 34.9732 16.419C34.2403 14.6497 33.1661 13.0421 31.8119 11.6879C30.4577 10.3337 28.8501 9.25948 27.0808 8.52659C25.3114 7.79371 23.4151 7.4165 21.5 7.4165ZM21.5 33.6665C15.0687 33.6665 9.83329 28.4311 9.83329 21.9998C9.83329 15.5686 15.0687 10.3332 21.5 10.3332C27.9312 10.3332 33.1666 15.5686 33.1666 21.9998C33.1666 28.4311 27.9312 33.6665 21.5 33.6665ZM21.5 13.2498C19.9529 13.2498 18.4691 13.8644 17.3752 14.9584C16.2812 16.0523 15.6666 17.5361 15.6666 19.0832H18.5833C18.5833 18.3096 18.8906 17.5678 19.4376 17.0208C19.9845 16.4738 20.7264 16.1665 21.5 16.1665C22.2735 16.1665 23.0154 16.4738 23.5624 17.0208C24.1093 17.5678 24.4166 18.3096 24.4166 19.0832C24.4166 21.9998 20.0416 21.6353 20.0416 26.3748H22.9583C22.9583 23.0936 27.3333 22.729 27.3333 19.0832C27.3333 17.5361 26.7187 16.0523 25.6247 14.9584C24.5308 13.8644 23.0471 13.2498 21.5 13.2498Z" fill="black" fill-opacity="0.56"/>
</svg>
