<svg width="42" height="38" viewBox="0 0 42 38" fill="none" xmlns="http://www.w3.org/2000/svg">
<g id="LR 7">
<g id="Lower">
<path d="M28.4427 2.74869C24.6627 1.39274 18.4677 2.18371 15.8427 2.74869C13.2177 3.18819 6.91776 5.09549 3.63652 9.91956C0.355281 14.7436 2.45527 28.4336 5.99901 32.6057C9.54275 36.7779 14.924 35.7348 21.0927 34.9525C27.2614 34.1703 33.4302 32.0842 36.5802 28.0424C39.7301 24.0006 40.3864 17.2209 38.9426 12.3968C37.4989 7.57273 33.1677 4.44363 28.4427 2.74869Z" fill="white"/>
<path d="M28.4427 2.74869C24.6627 1.39274 18.4677 2.18371 15.8427 2.74869C13.2177 3.18819 6.91776 5.09549 3.63652 9.91956C0.355281 14.7436 2.45527 28.4336 5.99901 32.6057C9.54275 36.7779 14.924 35.7348 21.0927 34.9525C27.2614 34.1703 33.4302 32.0842 36.5802 28.0424C39.7301 24.0006 40.3864 17.2209 38.9426 12.3968C37.4989 7.57273 33.1677 4.44363 28.4427 2.74869Z" stroke="#D7535E" stroke-width="3"/>
</g>
</g>
</svg>
