<svg width="30" height="32" viewBox="0 0 30 32" fill="none" xmlns="http://www.w3.org/2000/svg">
<path d="M19.2739 2.21831C23.2957 2.80867 26.245 7.15327 27.0494 12.0882C27.8537 17.0232 27.8537 22.8918 25.4407 25.0259C23.0276 27.1599 18.2015 29.0272 15.7884 29.4273C13.3753 29.8275 8.68328 29.2939 7.34269 28.3603L7.30831 28.3364C5.95012 27.3906 2.91307 25.2757 2.24844 23.292C1.57815 21.2913 0.505674 13.5554 4.25933 9.02057C8.01298 4.48573 11.0963 1.01791 19.2739 2.21831Z" fill="white"/>
<path d="M7.34269 28.3603C8.68328 29.2939 13.3753 29.8275 15.7884 29.4273C18.2015 29.0272 23.0276 27.1599 25.4407 25.0259C27.8537 22.8918 27.8537 17.0232 27.0494 12.0882C26.245 7.15327 23.2957 2.80867 19.2739 2.21831C11.0963 1.01791 8.01298 4.48573 4.25933 9.02057C0.505674 13.5554 1.57815 21.2913 2.24844 23.292C2.91307 25.2757 5.95012 27.3906 7.30831 28.3364M7.34269 28.3603L7.30831 28.3364M7.34269 28.3603C7.33135 28.3524 7.31989 28.3444 7.30831 28.3364" stroke="#D7535E" stroke-width="3"/>
</svg>
