<svg width="30" height="32" viewBox="0 0 30 32" fill="none" xmlns="http://www.w3.org/2000/svg">
<g id="Vector">
<path d="M10.2416 2.21831C6.21982 2.80867 3.27053 7.15327 2.46617 12.0882C1.66182 17.0232 1.66181 22.8918 4.07488 25.0259C6.48794 27.1599 11.3141 29.0272 13.7271 29.4273C16.1402 29.8275 20.8323 29.2939 22.1729 28.3603L22.2072 28.3364C23.5654 27.3906 26.6025 25.2757 27.2671 23.292C27.9374 21.2913 29.0099 13.5554 25.2562 9.02057C21.5026 4.48573 18.4192 1.01791 10.2416 2.21831Z" fill="white"/>
<path d="M22.1729 28.3603C20.8323 29.2939 16.1402 29.8275 13.7271 29.4273C11.3141 29.0272 6.48794 27.1599 4.07488 25.0259C1.66181 22.8918 1.66182 17.0232 2.46617 12.0882C3.27053 7.15327 6.21982 2.80867 10.2416 2.21831C18.4192 1.01791 21.5026 4.48573 25.2562 9.02057C29.0099 13.5554 27.9374 21.2913 27.2671 23.292C26.6025 25.2757 23.5654 27.3906 22.2072 28.3364M22.1729 28.3603L22.2072 28.3364M22.1729 28.3603C22.1842 28.3524 22.1957 28.3444 22.2072 28.3364" stroke="#D7535E" stroke-width="3"/>
</g>
</svg>
